<svg width="48" height="49" viewBox="0 0 48 49" fill="none" xmlns="http://www.w3.org/2000/svg">
<rect y="0.398926" width="48" height="48" rx="8" fill="#E8F5E9"/>
<g clip-path="url(#clip0_5348_1407)">
<path fill-rule="evenodd" clip-rule="evenodd" d="M10.3533 0.593506C15.8761 0.593506 20.3533 5.07066 20.3533 10.5935V0.593506H30.3533C35.8761 0.593506 40.3533 5.07066 40.3533 10.5935C40.3533 16.1163 35.8761 20.5935 30.3533 20.5935C35.8761 20.5935 40.3533 25.0707 40.3533 30.5935C40.3533 33.3358 39.2494 35.8203 37.4618 37.6269L37.4244 37.6646L37.3912 37.6976C35.5842 39.4878 33.0979 40.5935 30.3533 40.5935C27.6274 40.5935 25.1562 39.5028 23.3523 37.734C23.3289 37.711 23.3055 37.6878 23.2822 37.6646C23.2603 37.6427 23.2385 37.6207 23.2168 37.5986C21.4457 35.7944 20.3533 33.3215 20.3533 30.5935C20.3533 36.1163 15.8761 40.5935 10.3533 40.5935C4.83048 40.5935 0.353333 36.1163 0.353333 30.5935V20.5935H10.3533C4.83048 20.5935 0.353333 16.1163 0.353333 10.5935C0.353333 5.07066 4.83048 0.593506 10.3533 0.593506ZM18.3533 10.5935C18.3533 15.0118 14.7716 18.5935 10.3533 18.5935V2.59351C14.7716 2.59351 18.3533 6.17523 18.3533 10.5935ZM38.3533 30.5935C38.3533 26.1752 34.7716 22.5935 30.3533 22.5935C25.935 22.5935 22.3533 26.1752 22.3533 30.5935H38.3533ZM2.35333 22.5935V30.5935C2.35333 35.0118 5.93505 38.5935 10.3533 38.5935C14.7716 38.5935 18.3533 35.0118 18.3533 30.5935V22.5935H2.35333ZM22.3533 18.5935V2.59351H30.3533C34.7716 2.59351 38.3533 6.17523 38.3533 10.5935C38.3533 15.0118 34.7716 18.5935 30.3533 18.5935H22.3533Z" fill="#5417D7"/>
</g>
<defs>
<clipPath id="clip0_5348_1407">
<rect width="40" height="40" fill="white" transform="translate(0.353333 0.593506)"/>
</clipPath>
</defs>
</svg>
