<svg width="228" height="45" viewBox="0 0 228 45" fill="none" xmlns="http://www.w3.org/2000/svg">
<path d="M9.43466 14.8535H12.6591L16.9773 25.3932H17.1477L21.4659 14.8535H24.6903V29.3989H22.1619V19.406H22.027L18.0071 29.3563H16.1179L12.098 19.3847H11.9631V29.3989H9.43466V14.8535ZM32.2756 29.612C31.1818 29.612 30.2372 29.3847 29.4418 28.9302C28.651 28.4709 28.0426 27.8222 27.6165 26.9842C27.1903 26.1413 26.9773 25.1494 26.9773 24.0083C26.9773 22.8861 27.1903 21.9013 27.6165 21.0538C28.0473 20.2015 28.6487 19.5386 29.4205 19.0651C30.1922 18.5869 31.099 18.3478 32.1406 18.3478C32.813 18.3478 33.4474 18.4567 34.044 18.6745C34.6454 18.8876 35.1757 19.219 35.6349 19.6688C36.099 20.1186 36.4635 20.6915 36.7287 21.3876C36.9938 22.0788 37.1264 22.9027 37.1264 23.8592V24.6475H28.1847V22.9146H34.6619C34.6572 22.4221 34.5507 21.9842 34.3423 21.6006C34.134 21.2124 33.8428 20.907 33.4688 20.6844C33.0994 20.4619 32.6686 20.3506 32.1761 20.3506C31.6506 20.3506 31.1889 20.4785 30.7912 20.7342C30.3935 20.9851 30.0833 21.3165 29.8608 21.7285C29.643 22.1357 29.5317 22.5831 29.527 23.0708V24.5836C29.527 25.2181 29.643 25.7626 29.875 26.2171C30.107 26.6669 30.4313 27.0126 30.848 27.254C31.2647 27.4908 31.7524 27.6092 32.3111 27.6092C32.6851 27.6092 33.0237 27.5571 33.3267 27.4529C33.6297 27.344 33.8925 27.1854 34.1151 26.9771C34.3376 26.7687 34.5057 26.5107 34.6193 26.2029L37.0199 26.4728C36.8684 27.1073 36.5795 27.6612 36.1534 28.1347C35.732 28.6035 35.1922 28.9681 34.5341 29.2285C33.8759 29.4842 33.1231 29.612 32.2756 29.612ZM44.131 29.612C43.0373 29.612 42.0927 29.3847 41.2972 28.9302C40.5065 28.4709 39.8981 27.8222 39.4719 26.9842C39.0458 26.1413 38.8327 25.1494 38.8327 24.0083C38.8327 22.8861 39.0458 21.9013 39.4719 21.0538C39.9028 20.2015 40.5041 19.5386 41.2759 19.0651C42.0477 18.5869 42.9544 18.3478 43.9961 18.3478C44.6684 18.3478 45.3029 18.4567 45.8995 18.6745C46.5008 18.8876 47.0311 19.219 47.4904 19.6688C47.9544 20.1186 48.319 20.6915 48.5842 21.3876C48.8493 22.0788 48.9819 22.9027 48.9819 23.8592V24.6475H40.0401V22.9146H46.5174C46.5127 22.4221 46.4061 21.9842 46.1978 21.6006C45.9895 21.2124 45.6983 20.907 45.3242 20.6844C44.9549 20.4619 44.524 20.3506 44.0316 20.3506C43.506 20.3506 43.0444 20.4785 42.6467 20.7342C42.2489 20.9851 41.9388 21.3165 41.7163 21.7285C41.4985 22.1357 41.3872 22.5831 41.3825 23.0708V24.5836C41.3825 25.2181 41.4985 25.7626 41.7305 26.2171C41.9625 26.6669 42.2868 27.0126 42.7035 27.254C43.1201 27.4908 43.6078 27.6092 44.1665 27.6092C44.5406 27.6092 44.8791 27.5571 45.1822 27.4529C45.4852 27.344 45.748 27.1854 45.9705 26.9771C46.1931 26.7687 46.3612 26.5107 46.4748 26.2029L48.8754 26.4728C48.7238 27.1073 48.435 27.6612 48.0089 28.1347C47.5875 28.6035 47.0477 28.9681 46.3896 29.2285C45.7314 29.4842 44.9786 29.612 44.131 29.612ZM56.6044 18.4898V20.4785H50.3331V18.4898H56.6044ZM51.8814 15.8762H54.4524V26.1177C54.4524 26.4633 54.5045 26.7285 54.6087 26.9131C54.7176 27.0931 54.8596 27.2162 55.0348 27.2824C55.21 27.3487 55.4041 27.3819 55.6172 27.3819C55.7782 27.3819 55.925 27.37 56.0575 27.3464C56.1948 27.3227 56.299 27.3014 56.37 27.2824L56.8033 29.2924C56.666 29.3397 56.4695 29.3918 56.2138 29.4486C55.9628 29.5055 55.6551 29.5386 55.2905 29.5481C54.6465 29.567 54.0665 29.4699 53.5504 29.2569C53.0343 29.0391 52.6248 28.7029 52.3217 28.2484C52.0234 27.7938 51.8767 27.2256 51.8814 26.5438V15.8762ZM66.8548 29.6191C66.1635 29.6191 65.5408 29.496 64.9869 29.2498C64.4376 28.9988 64.002 28.6295 63.68 28.1418C63.3628 27.6541 63.2042 27.0528 63.2042 26.3378C63.2042 25.7223 63.3178 25.2133 63.5451 24.8109C63.7724 24.4084 64.0825 24.0864 64.4755 23.8449C64.8685 23.6035 65.3112 23.4212 65.8036 23.2981C66.3008 23.1702 66.8145 23.0779 67.3448 23.0211C67.984 22.9548 68.5025 22.8956 68.9002 22.8435C69.2979 22.7867 69.5868 22.7015 69.7667 22.5878C69.9513 22.4695 70.0437 22.2872 70.0437 22.041V21.9984C70.0437 21.4633 69.8851 21.049 69.5678 20.7555C69.2506 20.4619 68.7937 20.3151 68.1971 20.3151C67.5674 20.3151 67.0678 20.4524 66.6985 20.7271C66.3339 21.0017 66.0877 21.326 65.9599 21.7001L63.5593 21.3592C63.7487 20.6963 64.0612 20.1423 64.4968 19.6972C64.9324 19.2474 65.4651 18.9112 66.0948 18.6887C66.7246 18.4614 67.4206 18.3478 68.1829 18.3478C68.7085 18.3478 69.2317 18.4093 69.7525 18.5324C70.2733 18.6556 70.7492 18.8592 71.18 19.1432C71.6109 19.4226 71.9566 19.8038 72.217 20.2867C72.4821 20.7697 72.6147 21.3734 72.6147 22.0978V29.3989H70.1431V27.9003H70.0579C69.9016 28.2034 69.6815 28.4875 69.3974 28.7526C69.118 29.013 68.7653 29.2237 68.3391 29.3847C67.9177 29.541 67.4229 29.6191 66.8548 29.6191ZM67.5224 27.7299C68.0385 27.7299 68.4859 27.6281 68.8647 27.4245C69.2435 27.2162 69.5347 26.9415 69.7383 26.6006C69.9466 26.2597 70.0508 25.888 70.0508 25.4856V24.2001C69.9703 24.2663 69.833 24.3279 69.6388 24.3847C69.4495 24.4415 69.2364 24.4913 68.9996 24.5339C68.7629 24.5765 68.5285 24.6144 68.2965 24.6475C68.0645 24.6806 67.8633 24.7091 67.6928 24.7327C67.3093 24.7848 66.966 24.87 66.663 24.9884C66.36 25.1068 66.1209 25.2725 65.9457 25.4856C65.7705 25.6939 65.6829 25.9638 65.6829 26.2952C65.6829 26.7687 65.8557 27.1262 66.2013 27.3677C66.547 27.6092 66.9873 27.7299 67.5224 27.7299ZM77.771 14.8535V29.3989H75.1999V14.8535H77.771ZM82.9858 14.8535V29.3989H80.4148V14.8535H82.9858ZM95.3491 29.612C94.2601 29.612 93.3249 29.3729 92.5437 28.8947C91.7672 28.4164 91.1682 27.7559 90.7468 26.9131C90.3301 26.0656 90.1218 25.0902 90.1218 23.987C90.1218 22.879 90.3349 21.9013 90.761 21.0538C91.1871 20.2015 91.7885 19.5386 92.565 19.0651C93.3462 18.5869 94.2695 18.3478 95.3349 18.3478C96.2203 18.3478 97.0039 18.5111 97.6857 18.8378C98.3723 19.1598 98.9192 19.6167 99.3263 20.2086C99.7335 20.7957 99.9656 21.4823 100.022 22.2682H97.565C97.4656 21.7427 97.2288 21.3047 96.8548 20.9543C96.4854 20.5992 95.9906 20.4217 95.3704 20.4217C94.8448 20.4217 94.3832 20.5637 93.9854 20.8478C93.5877 21.1271 93.2776 21.5296 93.055 22.0552C92.8372 22.5807 92.7283 23.2105 92.7283 23.9444C92.7283 24.6878 92.8372 25.327 93.055 25.862C93.2728 26.3923 93.5782 26.8019 93.9712 27.0907C94.369 27.3748 94.8353 27.5168 95.3704 27.5168C95.7492 27.5168 96.0877 27.4458 96.386 27.3038C96.689 27.157 96.9424 26.9463 97.146 26.6717C97.3496 26.397 97.4892 26.0632 97.565 25.6702H100.022C99.9608 26.442 99.7335 27.1262 99.3406 27.7228C98.9476 28.3146 98.4125 28.7787 97.7354 29.1148C97.0584 29.4463 96.2629 29.612 95.3491 29.612ZM109.087 24.8109V18.4898H111.658V29.3989H109.165V27.46H109.051C108.805 28.0708 108.4 28.5703 107.837 28.9586C107.278 29.3468 106.589 29.541 105.77 29.541C105.055 29.541 104.423 29.3824 103.874 29.0651C103.329 28.7431 102.903 28.2768 102.595 27.666C102.287 27.0504 102.134 26.3071 102.134 25.4359V18.4898H104.705V25.0381C104.705 25.7294 104.894 26.2787 105.273 26.6859C105.652 27.0931 106.149 27.2967 106.764 27.2967C107.143 27.2967 107.51 27.2043 107.865 27.0197C108.22 26.835 108.511 26.5604 108.739 26.1958C108.971 25.8265 109.087 25.3648 109.087 24.8109ZM122.924 21.3734L120.58 21.629C120.514 21.3923 120.398 21.1698 120.232 20.9614C120.071 20.7531 119.853 20.585 119.578 20.4572C119.304 20.3293 118.968 20.2654 118.57 20.2654C118.035 20.2654 117.585 20.3814 117.221 20.6134C116.861 20.8454 116.683 21.1461 116.688 21.5154C116.683 21.8326 116.799 22.0907 117.036 22.2896C117.277 22.4884 117.675 22.6518 118.229 22.7796L120.09 23.1773C121.122 23.3999 121.889 23.7526 122.391 24.2356C122.898 24.7185 123.153 25.3506 123.158 26.1319C123.153 26.8184 122.952 27.4245 122.554 27.9501C122.161 28.4709 121.614 28.8781 120.914 29.1717C120.213 29.4652 119.408 29.612 118.499 29.612C117.164 29.612 116.089 29.3326 115.275 28.7739C114.46 28.2105 113.975 27.4269 113.819 26.4231L116.326 26.1816C116.439 26.674 116.681 27.0457 117.05 27.2967C117.419 27.5476 117.9 27.6731 118.492 27.6731C119.103 27.6731 119.593 27.5476 119.962 27.2967C120.336 27.0457 120.523 26.7356 120.523 26.3663C120.523 26.0538 120.402 25.7957 120.161 25.5921C119.924 25.3885 119.555 25.2323 119.053 25.1234L117.192 24.7327C116.146 24.5149 115.372 24.148 114.87 23.6319C114.368 23.111 114.119 22.4529 114.124 21.6574C114.119 20.9851 114.301 20.4027 114.671 19.9103C115.045 19.4131 115.563 19.0296 116.226 18.7597C116.894 18.4851 117.663 18.3478 118.534 18.3478C119.813 18.3478 120.819 18.62 121.553 19.1646C122.292 19.7091 122.748 20.4453 122.924 21.3734ZM130.725 18.4898V20.4785H124.454V18.4898H130.725ZM126.002 15.8762H128.574V26.1177C128.574 26.4633 128.626 26.7285 128.73 26.9131C128.839 27.0931 128.981 27.2162 129.156 27.2824C129.331 27.3487 129.525 27.3819 129.738 27.3819C129.899 27.3819 130.046 27.37 130.179 27.3464C130.316 27.3227 130.42 27.3014 130.491 27.2824L130.924 29.2924C130.787 29.3397 130.591 29.3918 130.335 29.4486C130.084 29.5055 129.776 29.5386 129.412 29.5481C128.768 29.567 128.188 29.4699 127.672 29.2569C127.155 29.0391 126.746 28.7029 126.443 28.2484C126.145 27.7938 125.998 27.2256 126.002 26.5438V15.8762ZM137.517 29.612C136.452 29.612 135.528 29.3776 134.747 28.9089C133.966 28.4401 133.36 27.7843 132.929 26.9415C132.503 26.0987 132.29 25.1139 132.29 23.987C132.29 22.8601 132.503 21.8729 132.929 21.0253C133.36 20.1778 133.966 19.5197 134.747 19.0509C135.528 18.5822 136.452 18.3478 137.517 18.3478C138.582 18.3478 139.506 18.5822 140.287 19.0509C141.068 19.5197 141.672 20.1778 142.098 21.0253C142.529 21.8729 142.744 22.8601 142.744 23.987C142.744 25.1139 142.529 26.0987 142.098 26.9415C141.672 27.7843 141.068 28.4401 140.287 28.9089C139.506 29.3776 138.582 29.612 137.517 29.612ZM137.531 27.5523C138.109 27.5523 138.592 27.3937 138.98 27.0765C139.368 26.7545 139.657 26.3236 139.847 25.7839C140.041 25.2441 140.138 24.6428 140.138 23.9799C140.138 23.3123 140.041 22.7086 139.847 22.1688C139.657 21.6243 139.368 21.1911 138.98 20.8691C138.592 20.5471 138.109 20.3861 137.531 20.3861C136.939 20.3861 136.447 20.5471 136.054 20.8691C135.666 21.1911 135.375 21.6243 135.18 22.1688C134.991 22.7086 134.896 23.3123 134.896 23.9799C134.896 24.6428 134.991 25.2441 135.18 25.7839C135.375 26.3236 135.666 26.7545 136.054 27.0765C136.447 27.3937 136.939 27.5523 137.531 27.5523ZM144.926 29.3989V18.4898H147.384V20.3435H147.512C147.739 19.7185 148.115 19.2308 148.641 18.8805C149.167 18.5253 149.794 18.3478 150.523 18.3478C151.262 18.3478 151.884 18.5277 152.391 18.8876C152.902 19.2427 153.262 19.728 153.471 20.3435H153.584C153.826 19.7375 154.233 19.2545 154.806 18.8947C155.383 18.5301 156.068 18.3478 156.858 18.3478C157.862 18.3478 158.681 18.665 159.316 19.2995C159.95 19.934 160.267 20.8596 160.267 22.0765V29.3989H157.689V22.4742C157.689 21.7971 157.509 21.3023 157.15 20.9898C156.79 20.6726 156.349 20.514 155.828 20.514C155.208 20.514 154.723 20.7081 154.373 21.0964C154.027 21.4799 153.854 21.9794 153.854 22.5949V29.3989H151.333V22.3677C151.333 21.8042 151.162 21.3544 150.821 21.0182C150.485 20.6821 150.045 20.514 149.5 20.514C149.131 20.514 148.795 20.6087 148.492 20.7981C148.189 20.9827 147.947 21.2455 147.767 21.5864C147.587 21.9226 147.498 22.3156 147.498 22.7654V29.3989H144.926ZM167.705 29.612C166.612 29.612 165.667 29.3847 164.871 28.9302C164.081 28.4709 163.472 27.8222 163.046 26.9842C162.62 26.1413 162.407 25.1494 162.407 24.0083C162.407 22.8861 162.62 21.9013 163.046 21.0538C163.477 20.2015 164.078 19.5386 164.85 19.0651C165.622 18.5869 166.529 18.3478 167.57 18.3478C168.243 18.3478 168.877 18.4567 169.474 18.6745C170.075 18.8876 170.605 19.219 171.065 19.6688C171.529 20.1186 171.893 20.6915 172.158 21.3876C172.424 22.0788 172.556 22.9027 172.556 23.8592V24.6475H163.614V22.9146H170.092C170.087 22.4221 169.98 21.9842 169.772 21.6006C169.564 21.2124 169.272 20.907 168.898 20.6844C168.529 20.4619 168.098 20.3506 167.606 20.3506C167.08 20.3506 166.619 20.4785 166.221 20.7342C165.823 20.9851 165.513 21.3165 165.29 21.7285C165.073 22.1357 164.961 22.5831 164.957 23.0708V24.5836C164.957 25.2181 165.073 25.7626 165.305 26.2171C165.537 26.6669 165.861 27.0126 166.278 27.254C166.694 27.4908 167.182 27.6092 167.741 27.6092C168.115 27.6092 168.453 27.5571 168.756 27.4529C169.059 27.344 169.322 27.1854 169.545 26.9771C169.767 26.7687 169.935 26.5107 170.049 26.2029L172.45 26.4728C172.298 27.1073 172.009 27.6612 171.583 28.1347C171.162 28.6035 170.622 28.9681 169.964 29.2285C169.306 29.4842 168.553 29.612 167.705 29.612ZM174.731 29.3989V18.4898H177.224V20.308H177.338C177.537 19.6783 177.877 19.193 178.36 18.8521C178.848 18.5064 179.404 18.3336 180.029 18.3336C180.172 18.3336 180.33 18.3407 180.505 18.3549C180.685 18.3644 180.834 18.3809 180.953 18.4046V20.7697C180.844 20.7318 180.671 20.6986 180.434 20.6702C180.202 20.6371 179.977 20.6205 179.76 20.6205C179.291 20.6205 178.869 20.7223 178.495 20.9259C178.126 21.1248 177.835 21.4018 177.622 21.7569C177.409 22.112 177.302 22.5216 177.302 22.9856V29.3989H174.731ZM191.283 21.3734L188.939 21.629C188.873 21.3923 188.757 21.1698 188.591 20.9614C188.43 20.7531 188.212 20.585 187.938 20.4572C187.663 20.3293 187.327 20.2654 186.929 20.2654C186.394 20.2654 185.944 20.3814 185.58 20.6134C185.22 20.8454 185.042 21.1461 185.047 21.5154C185.042 21.8326 185.158 22.0907 185.395 22.2896C185.637 22.4884 186.034 22.6518 186.588 22.7796L188.449 23.1773C189.481 23.3999 190.248 23.7526 190.75 24.2356C191.257 24.7185 191.513 25.3506 191.517 26.1319C191.513 26.8184 191.311 27.4245 190.914 27.9501C190.521 28.4709 189.974 28.8781 189.273 29.1717C188.572 29.4652 187.767 29.612 186.858 29.612C185.523 29.612 184.448 29.3326 183.634 28.7739C182.819 28.2105 182.334 27.4269 182.178 26.4231L184.685 26.1816C184.799 26.674 185.04 27.0457 185.409 27.2967C185.779 27.5476 186.259 27.6731 186.851 27.6731C187.462 27.6731 187.952 27.5476 188.321 27.2967C188.695 27.0457 188.882 26.7356 188.882 26.3663C188.882 26.0538 188.762 25.7957 188.52 25.5921C188.283 25.3885 187.914 25.2323 187.412 25.1234L185.551 24.7327C184.505 24.5149 183.731 24.148 183.229 23.6319C182.727 23.111 182.479 22.4529 182.483 21.6574C182.479 20.9851 182.661 20.4027 183.03 19.9103C183.404 19.4131 183.923 19.0296 184.586 18.7597C185.253 18.4851 186.023 18.3478 186.894 18.3478C188.172 18.3478 189.178 18.62 189.912 19.1646C190.651 19.7091 191.108 20.4453 191.283 21.3734Z" fill="#4CAF4F"/>
<path d="M220 26.3989L223.293 23.106C223.683 22.7155 223.683 22.0823 223.293 21.6918L220 18.3989M223 22.3989L209 22.3989" stroke="#4CAF4F" stroke-width="1.5" stroke-linecap="round"/>
</svg>
